<?xml version="1.0" encoding="utf-8"?>
<!-- Generator: Adobe Illustrator 15.0.0, SVG Export Plug-In . SVG Version: 6.00 Build 0)  -->
<!DOCTYPE svg PUBLIC "-//W3C//DTD SVG 1.1//EN" "http://www.w3.org/Graphics/SVG/1.1/DTD/svg11.dtd">
<svg version="1.1" id="Layer_1" xmlns="http://www.w3.org/2000/svg" xmlns:xlink="http://www.w3.org/1999/xlink" x="0px" y="0px"
	 width="150px" height="24.667px" viewBox="0 0 150 24.667" enable-background="new 0 0 150 24.667" xml:space="preserve">
<g>
	<path fill="#3A1888" d="M6.915,19.583c1.13,1.131,4.141,4.199,4.139,4.203c-0.01,0.02,2.991-2.994,4.187-4.188l-4.17-4.17
		L6.915,19.583z"/>
	<path fill="#03A1C4" d="M11.07,15.428l4.17,4.17c0.006-0.007,0.014-0.015,0.021-0.021l4.165-4.166l-4.169-4.169L11.07,15.428z"/>
	<path fill="#05D0DF" d="M19.426,15.412l0.011-0.012c2.304-2.304,2.306-6.039,0.006-8.345l-4.187,4.187L19.426,15.412z"/>
	<polygon fill="#761FE8" points="6.883,11.241 2.728,15.396 2.732,15.4 6.908,19.578 6.915,19.583 11.07,15.428 	"/>
	<polygon fill="#FFAA01" points="11.07,7.054 15.257,11.241 19.444,7.055 19.438,7.047 15.261,2.871 15.257,2.867 	"/>
	<path fill="#F1175D" d="M2.711,7.069c-2.284,2.307-2.278,6.028,0.017,8.328l4.155-4.155L2.711,7.069z"/>
	<path fill="#FB3A1B" d="M11.07,7.054L6.897,2.881L2.732,7.047C2.725,7.055,2.719,7.062,2.711,7.069l4.172,4.172L11.07,7.054z"/>
	<path fill="#FBC935" d="M15.257,2.867c-2.306-2.302-6.043-2.301-8.349,0.004l-0.01,0.01l4.173,4.173L15.257,2.867z"/>
</g>
<g>
	<path fill="#FFFFFF" d="M32.528,16.455v-4.267c0-1.05-0.55-2.003-1.633-2.003c-1.067,0-1.697,0.953-1.697,2.003v4.267h-1.971V8.471
		h1.826l0.146,0.97c0.421-0.808,1.342-1.099,2.101-1.099c0.954,0,1.907,0.388,2.36,1.487c0.711-1.131,1.632-1.455,2.667-1.455
		c2.263,0,3.377,1.391,3.377,3.782v4.3h-1.971v-4.3c0-1.049-0.437-1.939-1.502-1.939c-1.068,0-1.73,0.922-1.73,1.972v4.268h-1.973
		V16.455z"/>
	<path fill="#FFFFFF" d="M48.026,8.487h1.892v7.968h-1.859l-0.097-1.164c-0.452,0.938-1.696,1.39-2.586,1.405
		c-2.358,0.017-4.104-1.438-4.104-4.234c0-2.748,1.827-4.186,4.154-4.169c1.066,0,2.084,0.5,2.536,1.293L48.026,8.487z
		 M43.243,12.463c0,1.519,1.05,2.424,2.36,2.424c3.102,0,3.102-4.832,0-4.832C44.293,10.055,43.243,10.944,43.243,12.463z"/>
	<path fill="#FFFFFF" d="M51.583,19.785V8.487h1.842l0.129,1.1c0.615-0.89,1.682-1.277,2.587-1.277c2.456,0,4.089,1.826,4.089,4.169
		c0,2.328-1.472,4.17-4.024,4.17c-0.84,0-2.085-0.259-2.651-1.132v4.27h-1.972V19.785z M58.257,12.479
		c0-1.244-0.84-2.263-2.263-2.263c-1.423,0-2.263,1.019-2.263,2.263s0.921,2.263,2.263,2.263
		C57.337,14.742,58.257,13.723,58.257,12.479z"/>
	<path fill="#FFFFFF" d="M63.753,6.063v2.408h2.715v0.662h-2.715v4.865c0,1.082,0.227,1.842,1.47,1.842
		c0.388,0,0.825-0.129,1.228-0.323l0.275,0.647c-0.501,0.242-1.002,0.403-1.503,0.403c-1.697,0-2.246-1.002-2.246-2.569V9.133H61.28
		V8.471h1.697V6.144L63.753,6.063z"/>
	<path fill="#FFFFFF" d="M69.345,5.869c0,0.841-1.277,0.841-1.277,0C68.068,5.029,69.345,5.029,69.345,5.869z M68.296,8.438v8.017
		h0.791V8.438H68.296z"/>
	<path fill="#FFFFFF" d="M72.141,5.143v11.312h-0.792V5.143H72.141z"/>
	<path fill="#FFFFFF" d="M84.698,8.471l0.032,1.422c0.5-1.083,1.633-1.503,2.65-1.503c0.6-0.017,1.18,0.146,1.713,0.469L88.74,9.505
		c-0.422-0.259-0.891-0.372-1.358-0.372c-1.487,0.017-2.635,1.212-2.635,2.667v4.655h-0.793V8.471H84.698z"/>
</g>
<g>
	<g>
		<path fill="#FFFFFF" d="M77.953,15.975c-1.407,0-2.613-0.882-3.118-2.134h-0.004h0.004c-0.001-0.002-0.001-0.002-0.001-0.002
			l6.464-1.715c0,0.002,0,0.005,0.001,0.007l0.688-0.182C81.71,9.927,80.008,8.37,77.953,8.37c-2.251,0-4.075,1.864-4.075,4.163
			c0,2.298,1.824,4.162,4.075,4.162c1.684,0,3.128-1.042,3.749-2.529l-0.649-0.283C80.539,15.113,79.346,15.975,77.953,15.975z
			 M74.582,12.532c0-1.903,1.51-3.443,3.372-3.443c1.455,0,2.694,0.942,3.166,2.262l-6.495,1.725
			C74.597,12.898,74.582,12.716,74.582,12.532z"/>
	</g>
</g>
<g>
	<path fill="#4673DC" d="M94.658,15.339V8.452h4.423v1.063H95.91v1.7h2.823v1.043H95.91v2.018h3.409v1.063H94.658z"/>
	<path fill="#4673DC" d="M106.326,11.891c0,0.596-0.093,1.115-0.278,1.555s-0.448,0.809-0.79,1.104
		c-0.341,0.295-0.752,0.514-1.232,0.656c-0.48,0.142-1.012,0.213-1.595,0.213c-0.278,0-0.594-0.012-0.944-0.034
		c-0.352-0.023-0.687-0.071-1.004-0.145V8.551c0.317-0.073,0.655-0.119,1.014-0.139c0.357-0.02,0.676-0.03,0.954-0.03
		c0.576,0,1.104,0.068,1.58,0.204c0.478,0.136,0.887,0.348,1.228,0.636c0.342,0.289,0.604,0.653,0.79,1.093
		C106.233,10.756,106.326,11.281,106.326,11.891z M101.734,14.306c0.073,0.006,0.169,0.011,0.288,0.015
		c0.119,0.003,0.282,0.005,0.487,0.005c0.842,0,1.47-0.214,1.884-0.642c0.414-0.427,0.621-1.025,0.621-1.793
		c0-0.782-0.202-1.382-0.606-1.799s-1.03-0.626-1.879-0.626c-0.371,0-0.636,0.01-0.795,0.03V14.306z"/>
	<path fill="#4673DC" d="M107.698,8.452h1.252v6.888h-1.252V8.452z"/>
	<path fill="#4673DC" d="M115.401,8.452v1.083h-2.117v5.805h-1.263V9.535h-2.117V8.452H115.401z"/>
	<path fill="#4673DC" d="M120.341,14.405c0.45,0,0.778-0.076,0.983-0.229s0.309-0.367,0.309-0.646c0-0.166-0.035-0.309-0.104-0.428
		s-0.169-0.227-0.298-0.323c-0.13-0.096-0.287-0.185-0.473-0.268s-0.397-0.164-0.636-0.244c-0.239-0.086-0.469-0.18-0.691-0.283
		c-0.222-0.103-0.417-0.23-0.586-0.383c-0.169-0.152-0.305-0.334-0.407-0.546c-0.104-0.212-0.154-0.467-0.154-0.766
		c0-0.623,0.215-1.111,0.646-1.466s1.018-0.532,1.76-0.532c0.431,0,0.813,0.048,1.147,0.144c0.335,0.096,0.599,0.201,0.79,0.313
		l-0.387,1.014c-0.226-0.126-0.473-0.222-0.741-0.289c-0.268-0.066-0.545-0.099-0.83-0.099c-0.338,0-0.601,0.069-0.79,0.208
		c-0.188,0.139-0.283,0.335-0.283,0.586c0,0.153,0.031,0.283,0.095,0.393c0.062,0.109,0.152,0.208,0.269,0.293
		c0.115,0.086,0.252,0.166,0.407,0.238c0.155,0.073,0.326,0.143,0.512,0.209c0.325,0.119,0.614,0.24,0.87,0.363
		c0.255,0.123,0.47,0.268,0.646,0.437s0.31,0.368,0.402,0.597c0.093,0.229,0.14,0.506,0.14,0.83c0,0.623-0.221,1.104-0.661,1.446
		c-0.44,0.341-1.085,0.512-1.933,0.512c-0.285,0-0.546-0.019-0.78-0.055c-0.235-0.037-0.444-0.081-0.627-0.135
		c-0.182-0.053-0.339-0.107-0.472-0.164c-0.133-0.056-0.238-0.107-0.318-0.153l0.368-1.024c0.179,0.1,0.421,0.199,0.726,0.299
		C119.542,14.355,119.909,14.405,120.341,14.405z"/>
	<path fill="#4673DC" d="M128.839,8.452v1.083h-2.117v5.805h-1.263V9.535h-2.117V8.452H128.839z"/>
	<path fill="#4673DC" d="M132.366,11.503c0.298-0.497,0.59-1,0.875-1.511c0.284-0.51,0.543-1.024,0.775-1.541h1.392
		c-0.372,0.702-0.758,1.4-1.158,2.092c-0.401,0.692-0.83,1.39-1.287,2.092v2.704h-1.253v-2.684
		c-0.457-0.709-0.888-1.411-1.292-2.107s-0.792-1.395-1.162-2.097h1.471c0.231,0.517,0.487,1.03,0.766,1.541
		C131.77,10.502,132.062,11.006,132.366,11.503z"/>
	<path fill="#4673DC" d="M140.616,14.256v1.083h-4.354V8.452h1.252v5.805H140.616z"/>
	<path fill="#4673DC" d="M141.57,15.339V8.452h4.423v1.063h-3.171v1.7h2.823v1.043h-2.823v2.018h3.409v1.063H141.57z"/>
</g>
</svg>
